<?xml version="1.0" encoding="UTF-8" standalone="no"?>
<svg
   id="icons_drawings"
   viewBox="0 0 5.758 5.7589999"
   version="1.1"
   sodipodi:docname="zoom-reset.svg"
   width="5.7579999"
   height="5.7589998"
   inkscape:version="1.3 (0e150ed, 2023-07-21)"
   xmlns:inkscape="http://www.inkscape.org/namespaces/inkscape"
   xmlns:sodipodi="http://sodipodi.sourceforge.net/DTD/sodipodi-0.dtd"
   xmlns="http://www.w3.org/2000/svg"
   xmlns:svg="http://www.w3.org/2000/svg">
  <sodipodi:namedview
     id="namedview1"
     pagecolor="#ffffff"
     bordercolor="#666666"
     borderopacity="1.0"
     inkscape:showpageshadow="2"
     inkscape:pageopacity="0.0"
     inkscape:pagecheckerboard="0"
     inkscape:deskcolor="#d1d1d1"
     inkscape:zoom="26.641737"
     inkscape:cx="5.8930091"
     inkscape:cy="2.7588291"
     inkscape:window-width="1384"
     inkscape:window-height="480"
     inkscape:window-x="0"
     inkscape:window-y="25"
     inkscape:window-maximized="0"
     inkscape:current-layer="icons_drawings" />
  <defs
     id="defs1">
    <style
       id="style1">.cls-1{fill:#000;stroke-width:0px;}</style>
  </defs>
  <path
     class="cls-1"
     d="M 0.354,5.759 0,5.405 1.524,3.881 C 1.192,3.471 0.993,2.95 0.993,2.383 0.993,1.069 2.062,0 3.376,0 4.69,0 5.758,1.069 5.758,2.383 5.758,3.697 4.689,4.766 3.376,4.766 2.809,4.766 2.287,4.567 1.877,4.235 L 0.353,5.759 Z M 3.377,0.5 c -1.038,0 -1.883,0.845 -1.883,1.883 0,1.038 0.845,1.883 1.883,1.883 1.038,0 1.882,-0.845 1.882,-1.883 C 5.259,1.345 4.415,0.5 3.377,0.5 Z M 4.143,3.504 3.376,2.737 2.609,3.504 2.255,3.15 3.022,2.383 2.255,1.616 2.609,1.262 3.376,2.029 4.143,1.262 4.497,1.616 3.73,2.383 4.497,3.15 Z"
     id="path1"
     style="fill:#1d5539;fill-opacity:1" />
</svg>
