<?xml version="1.0" encoding="UTF-8" standalone="no"?>
<svg
   id="icons_drawings"
   viewBox="0 0 5.758 5.7589999"
   version="1.1"
   sodipodi:docname="zoom-in.svg"
   width="5.7579999"
   height="5.7589998"
   inkscape:version="1.3 (0e150ed, 2023-07-21)"
   xmlns:inkscape="http://www.inkscape.org/namespaces/inkscape"
   xmlns:sodipodi="http://sodipodi.sourceforge.net/DTD/sodipodi-0.dtd"
   xmlns="http://www.w3.org/2000/svg"
   xmlns:svg="http://www.w3.org/2000/svg">
  <sodipodi:namedview
     id="namedview1"
     pagecolor="#ffffff"
     bordercolor="#666666"
     borderopacity="1.0"
     inkscape:showpageshadow="2"
     inkscape:pageopacity="0.0"
     inkscape:pagecheckerboard="0"
     inkscape:deskcolor="#d1d1d1"
     inkscape:zoom="13.320869"
     inkscape:cx="3.0778774"
     inkscape:cy="8.370325"
     inkscape:window-width="1400"
     inkscape:window-height="480"
     inkscape:window-x="0"
     inkscape:window-y="25"
     inkscape:window-maximized="0"
     inkscape:current-layer="icons_drawings" />
  <defs
     id="defs1">
    <style
       id="style1">.cls-1{fill:#000;stroke-width:0px;}</style>
  </defs>
  <path
     class="cls-1"
     d="M 0.35399999,5.759 0,5.4049999 1.524,3.8809998 C 1.192,3.471 0.99299997,2.9499998 0.99299997,2.3829999 0.99299997,1.069 2.062,0 3.3759999,0 4.69,0 5.7579998,1.069 5.7579998,2.3829999 c 0,1.3139999 -1.069,2.3829999 -2.3819999,2.3829999 -0.567,0 -1.089,-0.1989999 -1.499,-0.5309999 L 0.35299999,5.759 Z M 3.3769998,0.49999997 C 2.3389999,0.49999997 1.494,1.345 1.494,2.3829999 c 0,1.0379999 0.8449999,1.8829999 1.8829998,1.8829999 1.0380001,0 1.8819999,-0.845 1.8819999,-1.8829999 0,-1.0379999 -0.8439998,-1.88299993 -1.8819999,-1.88299993 z m 0.25,3.21600003 h -0.5 V 2.6329999 H 2.0439999 V 2.133 H 3.1269998 V 1.05 h 0.5 v 1.083 h 1.083 v 0.4999999 h -1.083 z"
     id="path1"
     style="fill:#1d5539;fill-opacity:1" />
</svg>
